<?xml version="1.0" encoding="UTF-8" standalone="no"?><!DOCTYPE svg PUBLIC "-//W3C//DTD SVG 1.1//EN" "http://www.w3.org/Graphics/SVG/1.1/DTD/svg11.dtd"><svg width="100%" height="100%" viewBox="0 0 1021 1021" version="1.1" xmlns="http://www.w3.org/2000/svg" xmlns:xlink="http://www.w3.org/1999/xlink" xml:space="preserve" xmlns:serif="http://www.serif.com/" style="fill-rule:evenodd;clip-rule:evenodd;stroke-linejoin:round;stroke-miterlimit:2;"><circle cx="510.417" cy="510.417" r="510.417" style="fill:#fff;"/><clipPath id="_clip1"><circle cx="510.417" cy="510.417" r="510.417"/></clipPath><g clip-path="url(#_clip1)"><path id="black-tie" d="M-54.3,-76.02l1129.43,0l0,1129.43l-1129.43,0l0,-1129.43Zm797.803,819.874c11.765,-114.582 -164.307,-348.423 -162.497,-463.961c1.501,-95.797 173.357,-229.264 173.357,-229.264l-243.946,-141.179l-243.947,141.179c0,0 171.856,133.467 173.357,229.264c1.81,115.538 -174.262,349.379 -162.497,463.961c10.995,107.087 233.087,223.534 233.087,223.534c0,0 222.091,-116.447 233.086,-223.534Z" style="fill-rule:nonzero;"/><path id="bolt" d="M584.583,563.011c1.868,2.031 2.378,4.92 1.183,7.472l-91.625,218.046c-1.357,2.541 -4.072,4.246 -7.124,4.246c-0.684,0 -1.531,-0.174 -2.378,-0.337c-3.736,-1.184 -5.941,-4.756 -5.093,-8.319l33.426,-158.826l-79.755,27.997c-0.684,0.174 -1.357,0.174 -2.031,0.174c-1.868,0 -3.898,-0.685 -5.256,-1.868c-2.031,-1.694 -2.715,-4.246 -2.205,-6.614l44.971,-150.855c0.848,-3.226 3.899,-5.43 7.472,-5.43l55.657,0c4.246,0 7.635,3.225 7.635,7.124c0,1.021 -0.337,2.031 -0.847,3.052l-50.738,100.28l88.921,-38.346c0.684,-0.174 1.358,-0.337 2.031,-0.337c2.205,0 4.246,1.021 5.767,2.541l-0.011,0Z" style="fill-rule:nonzero;"/></g></svg>